<svg xmlns="http://www.w3.org/2000/svg" viewBox="0 0 24 24" width="24" height="24" fill="#00e5ff">
  <rect x="2" y="4" width="20" height="16" rx="2" ry="2" fill="#00e5ff"/>
  <rect x="4" y="6" width="3" height="2" rx="0.5" ry="0.5" fill="#f06292"/>
  <rect x="8" y="6" width="3" height="2" rx="0.5" ry="0.5" fill="#f06292"/>
  <rect x="12" y="6" width="3" height="2" rx="0.5" ry="0.5" fill="#f06292"/>
  <rect x="16" y="6" width="3" height="2" rx="0.5" ry="0.5" fill="#f06292"/>
  <rect x="4" y="9" width="3" height="2" rx="0.5" ry="0.5" fill="#f06292"/>
  <rect x="8" y="9" width="3" height="2" rx="0.5" ry="0.5" fill="#f06292"/>
  <rect x="12" y="9" width="3" height="2" rx="0.5" ry="0.5" fill="#f06292"/>
  <rect x="16" y="9" width="3" height="2" rx="0.5" ry="0.5" fill="#f06292"/>
  <rect x="4" y="12" width="3" height="2" rx="0.5" ry="0.5" fill="#f06292"/>
  <rect x="8" y="12" width="3" height="2" rx="0.5" ry="0.5" fill="#f06292"/>
  <rect x="12" y="12" width="3" height="2" rx="0.5" ry="0.5" fill="#f06292"/>
  <rect x="16" y="12" width="3" height="2" rx="0.5" ry="0.5" fill="#f06292"/>
  <rect x="6" y="15" width="12" height="2" rx="0.5" ry="0.5" fill="#f06292"/>
</svg>